<mxfile host="65bd71144e">
    <diagram id="R2lEEEUBdFMjLlhIrx00" name="Page-1">
        <mxGraphModel dx="816" dy="647" grid="1" gridSize="10" guides="1" tooltips="1" connect="1" arrows="1" fold="1" page="1" pageScale="1" pageWidth="1100" pageHeight="850" background="none" math="0" shadow="0">
            <root>
                <mxCell id="0"/>
                <mxCell id="1" parent="0"/>
                <mxCell id="2" value="New Proposal" style="shape=ellipse;whiteSpace=wrap;html=1;" parent="1" vertex="1">
                    <mxGeometry x="260" y="20" width="80" height="40" as="geometry"/>
                </mxCell>
                <mxCell id="3" value="Submit Proposal" style="rounded=0;whiteSpace=wrap;html=1;" parent="1" vertex="1">
                    <mxGeometry x="220" y="80" width="160" height="40" as="geometry"/>
                </mxCell>
                <mxCell id="4" value="Upload Attachment to Blob Storage" style="rounded=0;whiteSpace=wrap;html=1;" parent="1" vertex="1">
                    <mxGeometry x="160" y="140" width="280" height="40" as="geometry"/>
                </mxCell>
                <mxCell id="5" value="Assign Status 'Submitted'" style="rounded=0;whiteSpace=wrap;html=1;" parent="1" vertex="1">
                    <mxGeometry x="200" y="200" width="200" height="40" as="geometry"/>
                </mxCell>
                <mxCell id="6" value="Send Notification to Panelist" style="rounded=0;whiteSpace=wrap;html=1;" parent="1" vertex="1">
                    <mxGeometry x="180" y="260" width="240" height="40" as="geometry"/>
                </mxCell>
                <mxCell id="7" value="Panelist Reviews Proposal" style="rounded=0;whiteSpace=wrap;html=1;" parent="1" vertex="1">
                    <mxGeometry x="180" y="320" width="240" height="40" as="geometry"/>
                </mxCell>
                <mxCell id="8" value="Decision?" style="shape=rhombus;whiteSpace=wrap;html=1;" parent="1" vertex="1">
                    <mxGeometry x="240" y="380" width="120" height="80" as="geometry"/>
                </mxCell>
                <mxCell id="9" value="Approve" style="rounded=0;whiteSpace=wrap;html=1;" parent="1" vertex="1">
                    <mxGeometry x="400" y="460" width="100" height="40" as="geometry"/>
                </mxCell>
                <mxCell id="10" value="Update Status to 'Approved'" style="rounded=0;whiteSpace=wrap;html=1;" parent="1" vertex="1">
                    <mxGeometry x="370" y="520" width="160" height="40" as="geometry"/>
                </mxCell>
                <mxCell id="11" value="Notify Submitter of Approval" style="rounded=0;whiteSpace=wrap;html=1;" parent="1" vertex="1">
                    <mxGeometry x="370" y="580" width="160" height="40" as="geometry"/>
                </mxCell>
                <mxCell id="12" value="Reject" style="rounded=0;whiteSpace=wrap;html=1;" parent="1" vertex="1">
                    <mxGeometry x="80" y="460" width="100" height="40" as="geometry"/>
                </mxCell>
                <mxCell id="13" value="Update Status to 'Rejected'" style="rounded=0;whiteSpace=wrap;html=1;" parent="1" vertex="1">
                    <mxGeometry x="50" y="520" width="160" height="40" as="geometry"/>
                </mxCell>
                <mxCell id="14" value="Notify Submitter of Rejection" style="rounded=0;whiteSpace=wrap;html=1;" parent="1" vertex="1">
                    <mxGeometry x="50" y="580" width="160" height="40" as="geometry"/>
                </mxCell>
                <mxCell id="18" value="" style="edgeStyle=elbowEdgeStyle;html=1;rounded=0;orthogonalLoop=1;jettySize=auto;" parent="1" source="2" target="3" edge="1">
                    <mxGeometry relative="1" as="geometry"/>
                </mxCell>
                <mxCell id="19" value="" style="edgeStyle=elbowEdgeStyle;html=1;rounded=0;orthogonalLoop=1;jettySize=auto;" parent="1" source="3" target="4" edge="1">
                    <mxGeometry relative="1" as="geometry"/>
                </mxCell>
                <mxCell id="20" value="" style="edgeStyle=elbowEdgeStyle;html=1;rounded=0;orthogonalLoop=1;jettySize=auto;" parent="1" source="4" target="5" edge="1">
                    <mxGeometry relative="1" as="geometry"/>
                </mxCell>
                <mxCell id="21" value="" style="edgeStyle=elbowEdgeStyle;html=1;rounded=0;orthogonalLoop=1;jettySize=auto;" parent="1" source="5" target="6" edge="1">
                    <mxGeometry relative="1" as="geometry"/>
                </mxCell>
                <mxCell id="22" value="" style="edgeStyle=elbowEdgeStyle;html=1;rounded=0;orthogonalLoop=1;jettySize=auto;" parent="1" source="6" target="7" edge="1">
                    <mxGeometry relative="1" as="geometry"/>
                </mxCell>
                <mxCell id="23" value="" style="edgeStyle=elbowEdgeStyle;html=1;rounded=0;orthogonalLoop=1;jettySize=auto;" parent="1" source="7" target="8" edge="1">
                    <mxGeometry relative="1" as="geometry"/>
                </mxCell>
                <mxCell id="24" value="" style="edgeStyle=elbowEdgeStyle;html=1;rounded=0;orthogonalLoop=1;jettySize=auto;" parent="1" source="8" target="9" edge="1">
                    <mxGeometry relative="1" as="geometry"/>
                </mxCell>
                <mxCell id="25" value="" style="edgeStyle=elbowEdgeStyle;html=1;rounded=0;orthogonalLoop=1;jettySize=auto;" parent="1" source="8" target="12" edge="1">
                    <mxGeometry relative="1" as="geometry"/>
                </mxCell>
                <mxCell id="26" value="" style="edgeStyle=elbowEdgeStyle;html=1;rounded=0;orthogonalLoop=1;jettySize=auto;" parent="1" source="8" edge="1">
                    <mxGeometry relative="1" as="geometry">
                        <mxPoint x="300" y="460" as="targetPoint"/>
                    </mxGeometry>
                </mxCell>
                <mxCell id="27" value="" style="edgeStyle=elbowEdgeStyle;html=1;rounded=0;orthogonalLoop=1;jettySize=auto;" parent="1" source="9" target="10" edge="1">
                    <mxGeometry relative="1" as="geometry"/>
                </mxCell>
                <mxCell id="28" value="" style="edgeStyle=elbowEdgeStyle;html=1;rounded=0;orthogonalLoop=1;jettySize=auto;" parent="1" source="10" target="11" edge="1">
                    <mxGeometry relative="1" as="geometry"/>
                </mxCell>
                <mxCell id="29" value="" style="edgeStyle=elbowEdgeStyle;html=1;rounded=0;orthogonalLoop=1;jettySize=auto;" parent="1" source="12" target="13" edge="1">
                    <mxGeometry relative="1" as="geometry"/>
                </mxCell>
                <mxCell id="30" value="" style="edgeStyle=elbowEdgeStyle;html=1;rounded=0;orthogonalLoop=1;jettySize=auto;" parent="1" source="13" target="14" edge="1">
                    <mxGeometry relative="1" as="geometry"/>
                </mxCell>
                <mxCell id="31" value="" style="edgeStyle=elbowEdgeStyle;html=1;rounded=0;orthogonalLoop=1;jettySize=auto;" parent="1" target="16" edge="1">
                    <mxGeometry relative="1" as="geometry">
                        <mxPoint x="300" y="500" as="sourcePoint"/>
                    </mxGeometry>
                </mxCell>
                <mxCell id="32" value="" style="edgeStyle=elbowEdgeStyle;html=1;rounded=0;orthogonalLoop=1;jettySize=auto;" parent="1" target="17" edge="1">
                    <mxGeometry relative="1" as="geometry">
                        <mxPoint x="300" y="560" as="sourcePoint"/>
                    </mxGeometry>
                </mxCell>
            </root>
        </mxGraphModel>
    </diagram>
</mxfile>